<svg xmlns="http://www.w3.org/2000/svg" viewBox="0 0 732 195">
  <defs>
    <style>
      .cls-1 {
        opacity: 0.3;
      }

      .cls-10, .cls-11, .cls-12, .cls-13, .cls-14, .cls-15, .cls-16, .cls-17, .cls-18, .cls-19, .cls-2, .cls-29, .cls-3, .cls-30, .cls-31, .cls-32, .cls-34, .cls-4, .cls-5, .cls-6, .cls-7, .cls-8, .cls-9 {
        fill: none;
      }

      .cls-10, .cls-11, .cls-12, .cls-13, .cls-14, .cls-15, .cls-16, .cls-17, .cls-18, .cls-19, .cls-2, .cls-20, .cls-21, .cls-29, .cls-3, .cls-30, .cls-31, .cls-32, .cls-34, .cls-4, .cls-5, .cls-6, .cls-7, .cls-8, .cls-9 {
        stroke: #0073ae;
      }

      .cls-10, .cls-11, .cls-12, .cls-13, .cls-14, .cls-15, .cls-16, .cls-17, .cls-18, .cls-19, .cls-2, .cls-20, .cls-28, .cls-3, .cls-31, .cls-32, .cls-4, .cls-5, .cls-6, .cls-7, .cls-8, .cls-9 {
        stroke-linecap: round;
      }

      .cls-10, .cls-11, .cls-12, .cls-13, .cls-14, .cls-15, .cls-16, .cls-17, .cls-18, .cls-19, .cls-2, .cls-20, .cls-28, .cls-3, .cls-31, .cls-32, .cls-34, .cls-4, .cls-5, .cls-6, .cls-7, .cls-8, .cls-9 {
        stroke-linejoin: round;
      }

      .cls-10, .cls-11, .cls-12, .cls-13, .cls-14, .cls-15, .cls-16, .cls-17, .cls-18, .cls-2, .cls-3, .cls-4, .cls-5, .cls-6, .cls-7, .cls-8, .cls-9 {
        stroke-width: 3px;
      }

      .cls-3 {
        stroke-dasharray: 0 6.67;
      }

      .cls-4 {
        stroke-dasharray: 0 8;
      }

      .cls-5 {
        stroke-dasharray: 0 6.75;
      }

      .cls-6 {
        stroke-dasharray: 0 7.33;
      }

      .cls-7 {
        stroke-dasharray: 0 7;
      }

      .cls-8 {
        stroke-dasharray: 0 7.12;
      }

      .cls-9 {
        stroke-dasharray: 0 6.25;
      }

      .cls-10 {
        stroke-dasharray: 0 7.27;
      }

      .cls-11 {
        stroke-dasharray: 0 7.25;
      }

      .cls-12 {
        stroke-dasharray: 0 7.4;
      }

      .cls-13 {
        stroke-dasharray: 0 7.2;
      }

      .cls-14 {
        stroke-dasharray: 0 7.06;
      }

      .cls-15 {
        stroke-dasharray: 0 7.3;
      }

      .cls-16 {
        stroke-dasharray: 0 7.67;
      }

      .cls-17 {
        stroke-dasharray: 0 6;
      }

      .cls-18 {
        stroke-dasharray: 0 8.5;
      }

      .cls-19, .cls-20, .cls-21, .cls-29, .cls-30, .cls-31, .cls-32, .cls-34 {
        stroke-width: 2px;
      }

      .cls-19 {
        opacity: 0.2;
      }

      .cls-20, .cls-27 {
        fill: #b2d5e6;
      }

      .cls-21, .cls-26, .cls-28 {
        fill: #fff;
      }

      .cls-21, .cls-29, .cls-30 {
        stroke-miterlimit: 10;
      }

      .cls-22 {
        fill: #ffdbb2;
      }

      .cls-23 {
        fill: #f80;
      }

      .cls-23, .cls-25 {
        opacity: 0.5;
      }

      .cls-24, .cls-25, .cls-33 {
        fill: #0073ae;
      }

      .cls-28 {
        stroke: #b2d5e6;
        stroke-width: 4px;
      }

      .cls-30, .cls-31, .cls-33 {
        fill-rule: evenodd;
      }
    </style>
  </defs>
  <title>features3</title>
  <g id="Layer_2" data-name="Layer 2">
    <g id="Layer_3" data-name="Layer 3">
      <g>
        <g class="cls-1">
          <g>
            <line class="cls-2" x1="209.5" y1="35.5" x2="209.5" y2="35.5"/>
            <line class="cls-3" x1="216.17" y1="35.5" x2="226.17" y2="35.5"/>
            <line class="cls-2" x1="229.5" y1="35.5" x2="229.5" y2="35.5"/>
            <line class="cls-4" x1="229.5" y1="43.5" x2="229.5" y2="47.5"/>
            <line class="cls-2" x1="229.5" y1="51.5" x2="229.5" y2="51.5"/>
            <line class="cls-5" x1="236.25" y1="51.5" x2="253.13" y2="51.5"/>
            <line class="cls-2" x1="256.5" y1="51.5" x2="256.5" y2="51.5"/>
          </g>
        </g>
        <g class="cls-1">
          <g>
            <line class="cls-2" x1="94.5" y1="55.5" x2="94.5" y2="55.5"/>
            <line class="cls-6" x1="101.83" y1="55.5" x2="112.83" y2="55.5"/>
            <line class="cls-2" x1="116.5" y1="55.5" x2="116.5" y2="55.5"/>
            <line class="cls-4" x1="116.5" y1="63.5" x2="116.5" y2="75.5"/>
            <line class="cls-2" x1="116.5" y1="79.5" x2="116.5" y2="79.5"/>
            <line class="cls-7" x1="123.5" y1="79.5" x2="253" y2="79.5"/>
            <line class="cls-2" x1="256.5" y1="79.5" x2="256.5" y2="79.5"/>
          </g>
        </g>
        <g class="cls-1">
          <g>
            <line class="cls-2" x1="55.5" y1="128.5" x2="55.5" y2="128.5"/>
            <line class="cls-8" x1="62.62" y1="128.5" x2="172.94" y2="128.5"/>
            <line class="cls-2" x1="176.5" y1="128.5" x2="176.5" y2="128.5"/>
            <line class="cls-9" x1="176.5" y1="122.25" x2="176.5" y2="106.63"/>
            <line class="cls-2" x1="176.5" y1="103.5" x2="176.5" y2="103.5"/>
            <line class="cls-10" x1="183.77" y1="103.5" x2="252.86" y2="103.5"/>
            <line class="cls-2" x1="256.5" y1="103.5" x2="256.5" y2="103.5"/>
          </g>
        </g>
        <g class="cls-1">
          <g>
            <line class="cls-2" x1="154.5" y1="169.5" x2="154.5" y2="169.5"/>
            <line class="cls-11" x1="161.75" y1="169.5" x2="208.88" y2="169.5"/>
            <line class="cls-2" x1="212.5" y1="169.5" x2="212.5" y2="169.5"/>
            <line class="cls-12" x1="212.5" y1="162.1" x2="212.5" y2="136.2"/>
            <line class="cls-2" x1="212.5" y1="132.5" x2="212.5" y2="132.5"/>
            <line class="cls-6" x1="219.83" y1="132.5" x2="252.83" y2="132.5"/>
            <line class="cls-2" x1="256.5" y1="132.5" x2="256.5" y2="132.5"/>
          </g>
        </g>
      </g>
      <g>
        <g class="cls-1">
          <g>
            <line class="cls-2" x1="586.5" y1="25.5" x2="586.5" y2="25.5"/>
            <line class="cls-3" x1="579.83" y1="25.5" x2="529.83" y2="25.5"/>
            <line class="cls-2" x1="526.5" y1="25.5" x2="526.5" y2="25.5"/>
            <line class="cls-13" x1="526.5" y1="32.7" x2="526.5" y2="57.9"/>
            <line class="cls-2" x1="526.5" y1="61.5" x2="526.5" y2="61.5"/>
            <line class="cls-7" x1="519.5" y1="61.5" x2="495" y2="61.5"/>
            <line class="cls-2" x1="491.5" y1="61.5" x2="491.5" y2="61.5"/>
          </g>
        </g>
        <g class="cls-1">
          <g>
            <line class="cls-2" x1="677.5" y1="65.5" x2="677.5" y2="65.5"/>
            <line class="cls-14" x1="670.44" y1="65.5" x2="568.03" y2="65.5"/>
            <line class="cls-2" x1="564.5" y1="65.5" x2="564.5" y2="65.5"/>
            <line class="cls-4" x1="564.5" y1="73.5" x2="564.5" y2="85.5"/>
            <line class="cls-2" x1="564.5" y1="89.5" x2="564.5" y2="89.5"/>
            <line class="cls-15" x1="557.2" y1="89.5" x2="495.15" y2="89.5"/>
            <line class="cls-2" x1="491.5" y1="89.5" x2="491.5" y2="89.5"/>
          </g>
        </g>
        <g class="cls-1">
          <g>
            <line class="cls-2" x1="647.5" y1="141.5" x2="647.5" y2="141.5"/>
            <line class="cls-16" x1="639.83" y1="141.5" x2="628.33" y2="141.5"/>
            <line class="cls-2" x1="624.5" y1="141.5" x2="624.5" y2="141.5"/>
            <line class="cls-7" x1="624.5" y1="134.5" x2="624.5" y2="117"/>
            <line class="cls-2" x1="624.5" y1="113.5" x2="624.5" y2="113.5"/>
            <line class="cls-7" x1="617.5" y1="113.5" x2="495" y2="113.5"/>
            <line class="cls-2" x1="491.5" y1="113.5" x2="491.5" y2="113.5"/>
          </g>
        </g>
        <g class="cls-1">
          <g>
            <line class="cls-2" x1="527.5" y1="158.5" x2="527.5" y2="158.5"/>
            <line class="cls-17" x1="521.5" y1="158.5" x2="512.5" y2="158.5"/>
            <line class="cls-2" x1="509.5" y1="158.5" x2="509.5" y2="158.5"/>
            <line class="cls-9" x1="509.5" y1="152.25" x2="509.5" y2="136.63"/>
            <line class="cls-2" x1="509.5" y1="133.5" x2="509.5" y2="133.5"/>
            <line class="cls-18" x1="501" y1="133.5" x2="496.75" y2="133.5"/>
            <line class="cls-2" x1="492.5" y1="133.5" x2="492.5" y2="133.5"/>
          </g>
        </g>
      </g>
      <circle class="cls-19" cx="616.5" cy="25.5" r="24.5"/>
      <circle class="cls-19" cx="179.5" cy="35.5" r="24.5"/>
      <circle class="cls-19" cx="64.5" cy="55.5" r="24.5"/>
      <circle class="cls-19" cx="25.5" cy="128.5" r="24.5"/>
      <circle class="cls-19" cx="125.5" cy="169.5" r="24.5"/>
      <circle class="cls-19" cx="706.5" cy="64.5" r="24.5"/>
      <circle class="cls-19" cx="676.5" cy="142.5" r="24.5"/>
      <circle class="cls-19" cx="557" cy="159" r="25"/>
      <g>
        <path class="cls-20" d="M414.84,164.71c-31.23-2.38-25.25-38.88-25.25-38.88H360.18s6,36.5-25.25,38.88a3.12,3.12,0,0,0,.18,6.24h79.53a3.12,3.12,0,0,0,.18-6.24Z"/>
        <path class="cls-21" d="M478,130.7c0,2.91-2.73,5.3-6.06,5.3H279.06c-3.33,0-6.06-2.39-6.06-5.3V7.3c0-2.92,2.73-5.3,6.06-5.3H471.94C475.27,2,478,4.38,478,7.3V130.7"/>
        <polyline class="cls-22" points="471 115 280 115 280 9.19 471 9.19"/>
        <polyline class="cls-23" points="471 12 280 12 280 9.19 471 9.19 471 12"/>
        <circle class="cls-24" cx="375.5" cy="5.76" r="1.54"/>
        <rect class="cls-21" x="332" y="164" width="86" height="8" rx="3.98" ry="3.98"/>
        <polygon class="cls-25" points="389 144 359 144 360.25 135.68 387.75 135.68 389 144"/>
        <g>
          <rect class="cls-26" x="345" y="26" width="61" height="74" rx="1.5" ry="1.5"/>
          <rect class="cls-22" x="372" y="82" width="7" height="7" rx="3.5" ry="3.5"/>
          <g>
            <g>
              <circle class="cls-26" cx="364.5" cy="54.5" r="2.63"/>
              <path class="cls-27" d="M364.5,52.75a1.75,1.75,0,1,1-1.75,1.75,1.75,1.75,0,0,1,1.75-1.75m0-1.75a3.5,3.5,0,1,0,3.5,3.5,3.51,3.51,0,0,0-3.5-3.5Z"/>
            </g>
            <g>
              <circle class="cls-26" cx="375.5" cy="54.5" r="2.63"/>
              <path class="cls-27" d="M375.5,52.75a1.75,1.75,0,1,1-1.75,1.75,1.75,1.75,0,0,1,1.75-1.75m0-1.75a3.5,3.5,0,1,0,3.5,3.5,3.51,3.51,0,0,0-3.5-3.5Z"/>
            </g>
            <g>
              <circle class="cls-26" cx="386.5" cy="54.5" r="2.63"/>
              <path class="cls-27" d="M386.5,52.75a1.75,1.75,0,1,1-1.75,1.75,1.75,1.75,0,0,1,1.75-1.75m0-1.75a3.5,3.5,0,1,0,3.5,3.5,3.51,3.51,0,0,0-3.5-3.5Z"/>
            </g>
            <g>
              <circle class="cls-26" cx="364.5" cy="64.5" r="2.63"/>
              <path class="cls-27" d="M364.5,62.75a1.75,1.75,0,1,1-1.75,1.75,1.75,1.75,0,0,1,1.75-1.75m0-1.75a3.5,3.5,0,1,0,3.5,3.5,3.51,3.51,0,0,0-3.5-3.5Z"/>
            </g>
            <g>
              <circle class="cls-26" cx="375.5" cy="64.5" r="2.63"/>
              <path class="cls-27" d="M375.5,62.75a1.75,1.75,0,1,1-1.75,1.75,1.75,1.75,0,0,1,1.75-1.75m0-1.75a3.5,3.5,0,1,0,3.5,3.5,3.51,3.51,0,0,0-3.5-3.5Z"/>
            </g>
            <g>
              <circle class="cls-26" cx="386.5" cy="64.5" r="2.63"/>
              <path class="cls-27" d="M386.5,62.75a1.75,1.75,0,1,1-1.75,1.75,1.75,1.75,0,0,1,1.75-1.75m0-1.75a3.5,3.5,0,1,0,3.5,3.5,3.51,3.51,0,0,0-3.5-3.5Z"/>
            </g>
            <g>
              <circle class="cls-26" cx="364.5" cy="74.5" r="2.63"/>
              <path class="cls-27" d="M364.5,72.75a1.75,1.75,0,1,1-1.75,1.75,1.75,1.75,0,0,1,1.75-1.75m0-1.75a3.5,3.5,0,1,0,3.5,3.5,3.51,3.51,0,0,0-3.5-3.5Z"/>
            </g>
            <g>
              <circle class="cls-26" cx="375.5" cy="74.5" r="2.63"/>
              <path class="cls-27" d="M375.5,72.75a1.75,1.75,0,1,1-1.75,1.75,1.75,1.75,0,0,1,1.75-1.75m0-1.75a3.5,3.5,0,1,0,3.5,3.5,3.51,3.51,0,0,0-3.5-3.5Z"/>
            </g>
            <g>
              <circle class="cls-26" cx="386.5" cy="74.5" r="2.63"/>
              <path class="cls-27" d="M386.5,72.75a1.75,1.75,0,1,1-1.75,1.75,1.75,1.75,0,0,1,1.75-1.75m0-1.75a3.5,3.5,0,1,0,3.5,3.5,3.51,3.51,0,0,0-3.5-3.5Z"/>
            </g>
          </g>
          <rect class="cls-24" x="345" y="29" width="61" height="8"/>
          <path class="cls-27" d="M345,94h61a0,0,0,0,1,0,0v4.5a1.5,1.5,0,0,1-1.5,1.5h-58a1.5,1.5,0,0,1-1.5-1.5V94A0,0,0,0,1,345,94Z"/>
          <line class="cls-28" x1="363" y1="44" x2="388" y2="44"/>
        </g>
      </g>
      <path class="cls-29" d="M180,23.23c-7.72,0-14,5.26-14,11.76a10.66,10.66,0,0,0,3.22,7.51l-1.71,4a2.17,2.17,0,0,0,0,1.48c.06.15.63,1.44,2.38.75L176,46.27a16.4,16.4,0,0,0,4,.49c7.72,0,14-5.27,14-11.76S187.69,23.23,180,23.23Z"/>
      <path class="cls-24" d="M67.4,56.2a1.9,1.9,0,0,1-1.07,1,.81.81,0,0,0-.42.46.79.79,0,0,0,0,.44l.07.35-.28-.23a9.11,9.11,0,0,0-2.27-1.42l0,0a1.68,1.68,0,0,1-.5-.69,1.58,1.58,0,0,1,0-1h0l0-.07a.79.79,0,0,0,.08-.36v0l0,0A9.92,9.92,0,0,0,64.78,49a5.67,5.67,0,1,0-11.34,0,9.85,9.85,0,0,0,2,5.91l0,0,0,0a1.58,1.58,0,0,1,0,1.08,2,2,0,0,1-.84.95h0l-.05,0-.07,0-.31.17-.06,0a9.39,9.39,0,0,0-4.36,6L49.44,65h1.69l.29-1.27a7.84,7.84,0,0,1,3.76-5.09l.13-.08.13-.07,0,0a3.59,3.59,0,0,0,1.63-1.86l0-.07,0-.14.13.07a3.86,3.86,0,0,0,3.79-.09l.14-.08,0,.15,0,.08,0,.08a3.05,3.05,0,0,0,.3.6l0,0v0a.8.8,0,0,0,.07.39.82.82,0,0,0,.48.41l.3.11.07,0a5.41,5.41,0,0,0,.93.56.81.81,0,0,0,.25.05l.06,0a7.93,7.93,0,0,1,3.43,4.89L67.51,65H69.2l-.38-1.64a9.63,9.63,0,0,0-2.37-4.42l-.24-.26.4.06a.67.67,0,0,0,.41-.07,3.46,3.46,0,0,0,1.9-1.88l0-.13.12.06a3.36,3.36,0,0,0,3.12-.08l.14-.07,0,.15a2.63,2.63,0,0,0,.25.52l0,0v0a.8.8,0,0,0,.55.76l.27.1,0,0a4.67,4.67,0,0,0,.81.49h0l.14,0,.11,0a6.76,6.76,0,0,1,2.91,4.16l.45,2A.44.44,0,0,1,78,65H79.6a2,2,0,0,0,0-.51l-.45-2a8.31,8.31,0,0,0-4.73-5.76l0,0A1.34,1.34,0,0,1,74,56.2a1.23,1.23,0,0,1,0-.78h0l0-.07a.77.77,0,0,0,.07-.28v0l0,0a8.24,8.24,0,0,0,1.52-4.89,5,5,0,0,0-10,0,8.66,8.66,0,0,0,1.76,5.16l0,0-.1.09h0l.11,0A1.24,1.24,0,0,1,67.4,56.2Zm-8.29-.94c-2.23,0-4-3.43-4-6.27a4,4,0,1,1,8,0C63.14,52.16,61.14,55.26,59.11,55.26Zm8.11-5.15a3.37,3.37,0,0,1,6.75,0c0,2.68-1.67,5.32-3.37,5.32S67.22,52.79,67.22,50.11Z"/>
      <g>
        <path class="cls-30" d="M19.77,133H18.14v0H16.24v-.07a6.17,6.17,0,0,1,.9-12.27l.51,0a7.86,7.86,0,0,1,13.53-1.48,3.32,3.32,0,0,1,.92-.13,3.38,3.38,0,0,1,3.31,2.72A5.66,5.66,0,0,1,35,133H33.18v0h-.75v0"/>
        <polygon class="cls-31" points="27.83 142 20 142 20 129 31 129 31 138.92 27.83 142"/>
        <line class="cls-32" x1="18" y1="129" x2="33" y2="129"/>
        <polygon class="cls-33" points="27 138 27 142 31.08 138.08 27 138"/>
        <line class="cls-29" x1="22" y1="133" x2="29" y2="133"/>
        <line class="cls-29" x1="22" y1="136" x2="29" y2="136"/>
      </g>
      <polygon class="cls-31" points="129 168.06 129 156 122 156 122 168.06 116.94 168.06 125.5 176.54 134.06 168.06 129 168.06"/>
      <g>
        <path class="cls-31" d="M116,179v1.71a1.26,1.26,0,0,0,1.23,1.29h9.22"/>
        <path class="cls-31" d="M135,179v1.71a1.26,1.26,0,0,1-1.23,1.29h-9.22"/>
      </g>
      <g>
        <rect class="cls-29" x="610" y="10.19" width="12" height="20.31" rx="6" ry="6"/>
        <path class="cls-32" d="M626,21v3.29a10,10,0,0,1-10,10h0a10,10,0,0,1-10-10V21"/>
        <line class="cls-29" x1="616" y1="33" x2="616" y2="40"/>
        <line class="cls-32" x1="619" y1="41" x2="613" y2="41"/>
      </g>
      <g>
        <g>
          <g>
            <line class="cls-34" x1="557" y1="144.29" x2="557" y2="152.21"/>
            <polyline class="cls-34" points="553 145.98 557 141.98 561 145.98"/>
          </g>
          <g>
            <line class="cls-34" x1="557" y1="144.29" x2="557" y2="152.21"/>
            <polyline class="cls-34" points="553.58 145.4 557 141.98 560.42 145.4"/>
          </g>
          <g>
            <line class="cls-34" x1="557" y1="173.68" x2="557" y2="165.75"/>
            <polyline class="cls-34" points="561 171.98 557 175.98 553 171.98"/>
          </g>
          <g>
            <line class="cls-34" x1="557" y1="173.68" x2="557" y2="165.75"/>
            <polyline class="cls-34" points="560.42 172.57 557 175.98 553.58 172.57"/>
          </g>
          <g>
            <line class="cls-34" x1="571.7" y1="158.98" x2="563.77" y2="158.98"/>
            <polyline class="cls-34" points="570 154.98 574 158.98 570 162.98"/>
          </g>
          <g>
            <line class="cls-34" x1="571.7" y1="158.98" x2="563.77" y2="158.98"/>
            <polyline class="cls-34" points="570.58 155.57 574 158.98 570.58 162.4"/>
          </g>
          <g>
            <line class="cls-34" x1="542.3" y1="158.98" x2="550.23" y2="158.98"/>
            <polyline class="cls-34" points="544 162.98 540 158.98 544 154.98"/>
          </g>
          <g>
            <line class="cls-34" x1="542.3" y1="158.98" x2="550.23" y2="158.98"/>
            <polyline class="cls-34" points="543.42 162.4 540 158.98 543.42 155.57"/>
          </g>
          <g>
            <line class="cls-34" x1="567.39" y1="148.59" x2="561.79" y2="154.19"/>
            <polyline class="cls-34" points="563.36 146.96 569.02 146.96 569.02 152.62"/>
          </g>
          <g>
            <line class="cls-34" x1="567.39" y1="148.59" x2="561.79" y2="154.19"/>
            <polyline class="cls-34" points="564.19 146.96 569.02 146.96 569.02 151.79"/>
          </g>
          <g>
            <line class="cls-34" x1="546.61" y1="169.37" x2="552.21" y2="163.77"/>
            <polyline class="cls-34" points="550.64 171 544.98 171 544.98 165.34"/>
          </g>
          <g>
            <line class="cls-34" x1="546.61" y1="169.37" x2="552.21" y2="163.77"/>
            <polyline class="cls-34" points="549.81 171 544.98 171 544.98 166.17"/>
          </g>
          <g>
            <line class="cls-34" x1="567.39" y1="169.37" x2="561.79" y2="163.77"/>
            <polyline class="cls-34" points="569.02 165.34 569.02 171 563.36 171"/>
          </g>
          <g>
            <line class="cls-34" x1="567.39" y1="169.37" x2="561.79" y2="163.77"/>
            <polyline class="cls-34" points="569.02 166.17 569.02 171 564.19 171"/>
          </g>
          <g>
            <line class="cls-34" x1="546.61" y1="148.59" x2="552.21" y2="154.19"/>
            <polyline class="cls-34" points="544.98 152.62 544.98 146.96 550.64 146.96"/>
          </g>
          <g>
            <line class="cls-34" x1="546.61" y1="148.59" x2="552.21" y2="154.19"/>
            <polyline class="cls-34" points="544.98 151.79 544.98 146.96 549.81 146.96"/>
          </g>
        </g>
        <circle class="cls-34" cx="557" cy="159" r="3"/>
      </g>
      <path class="cls-32" d="M681.6,133H663.4a2.35,2.35,0,0,0-2.4,2.3V149.7a2.35,2.35,0,0,0,2.4,2.3h18.2a2.35,2.35,0,0,0,2.4-2.3V135.3A2.35,2.35,0,0,0,681.6,133Z"/>
      <path class="cls-30" d="M692.4,150l-3.64-1.48c-1.16-.71-1.73-1.2-1.73-2.08v-7c0-.88.4-1.25,1.73-2.15l3.64-1.8c1,0,1.6.25,1.6,1.13v12.18C694,149.67,693.35,150,692.4,150Z"/>
      <line class="cls-29" x1="666" y1="138" x2="666" y2="147"/>
      <line class="cls-29" x1="671" y1="138" x2="671" y2="147"/>
      <line class="cls-29" x1="671" y1="143" x2="666" y2="143"/>
      <path class="cls-29" d="M674,139h2.09a2.91,2.91,0,0,1,2.91,2.91v1.19a2.91,2.91,0,0,1-2.91,2.91H674a0,0,0,0,1,0,0v-7A0,0,0,0,1,674,139Z"/>
      <g>
        <path class="cls-24" d="M714.72,76.37a8.36,8.36,0,0,0-4.64-5.85,1.22,1.22,0,0,1-.34-.49,1.17,1.17,0,0,1,0-.75.92.92,0,0,0,.08-.33,8.54,8.54,0,0,0,1.5-5,5,5,0,1,0-9.95,0,9,9,0,0,0,1.72,5.24l0,0a1.29,1.29,0,0,1,.07.54c-.08,0-.43.55-.59.71a8.23,8.23,0,0,0-4.3,5.59c.32.05.64.12,1,.19.11,0,.21,0,.32,0a2.89,2.89,0,0,1,.47,0,6.56,6.56,0,0,1,2.45-3.57l.15,0,0,0a.88.88,0,0,0,.25-.06,3.52,3.52,0,0,0,1.9-1.95,3.41,3.41,0,0,0,1.5.36,3.48,3.48,0,0,0,1.63-.44h0a2.87,2.87,0,0,0,.25.54.93.93,0,0,0,.61.87l.26.1a4.65,4.65,0,0,0,.8.5h0a.87.87,0,0,0,.24.06,6.58,6.58,0,0,1,2.62,3.56,12.32,12.32,0,0,1,1.93.1Zm-8.35-7.19c-1.58,0-3.14-2.57-3.14-5.19a3.14,3.14,0,1,1,6.28,0C709.51,66.61,708,69.18,706.37,69.18Z"/>
        <rect class="cls-29" x="692" y="55" width="29" height="21"/>
      </g>
    </g>
  </g>
</svg>
